<svg width="138" height="24" viewBox="0 0 138 24" fill="none" xmlns="http://www.w3.org/2000/svg">
<path d="M0.592 12.416C0.592 11.328 0.842667 10.352 1.344 9.488C1.856 8.624 2.544 7.952 3.408 7.472C4.28267 6.98133 5.23733 6.736 6.272 6.736C7.456 6.736 8.50667 7.02933 9.424 7.616C10.352 8.192 11.024 9.01333 11.44 10.08H9.248C8.96 9.49333 8.56 9.056 8.048 8.768C7.536 8.48 6.944 8.336 6.272 8.336C5.536 8.336 4.88 8.50133 4.304 8.832C3.728 9.16267 3.27467 9.63733 2.944 10.256C2.624 10.8747 2.464 11.5947 2.464 12.416C2.464 13.2373 2.624 13.9573 2.944 14.576C3.27467 15.1947 3.728 15.6747 4.304 16.016C4.88 16.3467 5.536 16.512 6.272 16.512C6.944 16.512 7.536 16.368 8.048 16.08C8.56 15.792 8.96 15.3547 9.248 14.768H11.44C11.024 15.8347 10.352 16.656 9.424 17.232C8.50667 17.808 7.456 18.096 6.272 18.096C5.22667 18.096 4.272 17.856 3.408 17.376C2.544 16.8853 1.856 16.208 1.344 15.344C0.842667 14.48 0.592 13.504 0.592 12.416ZM15.399 6.16V18H13.575V6.16H15.399ZM21.6178 18.144C20.7858 18.144 20.0338 17.9573 19.3618 17.584C18.6898 17.2 18.1618 16.6667 17.7778 15.984C17.3938 15.2907 17.2018 14.4907 17.2018 13.584C17.2018 12.688 17.3991 11.8933 17.7938 11.2C18.1884 10.5067 18.7271 9.97333 19.4098 9.6C20.0924 9.22667 20.8551 9.04 21.6978 9.04C22.5404 9.04 23.3031 9.22667 23.9858 9.6C24.6684 9.97333 25.2071 10.5067 25.6018 11.2C25.9964 11.8933 26.1938 12.688 26.1938 13.584C26.1938 14.48 25.9911 15.2747 25.5858 15.968C25.1804 16.6613 24.6258 17.2 23.9218 17.584C23.2284 17.9573 22.4604 18.144 21.6178 18.144ZM21.6178 16.56C22.0871 16.56 22.5244 16.448 22.9298 16.224C23.3458 16 23.6818 15.664 23.9378 15.216C24.1938 14.768 24.3218 14.224 24.3218 13.584C24.3218 12.944 24.1991 12.4053 23.9538 11.968C23.7084 11.52 23.3831 11.184 22.9778 10.96C22.5724 10.736 22.1351 10.624 21.6658 10.624C21.1964 10.624 20.7591 10.736 20.3538 10.96C19.9591 11.184 19.6444 11.52 19.4098 11.968C19.1751 12.4053 19.0578 12.944 19.0578 13.584C19.0578 14.5333 19.2978 15.2693 19.7778 15.792C20.2684 16.304 20.8818 16.56 21.6178 16.56ZM32.4449 9.04C33.1382 9.04 33.7569 9.184 34.3009 9.472C34.8555 9.76 35.2875 10.1867 35.5969 10.752C35.9062 11.3173 36.0609 12 36.0609 12.8V18H34.2529V13.072C34.2529 12.2827 34.0555 11.68 33.6609 11.264C33.2662 10.8373 32.7275 10.624 32.0449 10.624C31.3622 10.624 30.8182 10.8373 30.4129 11.264C30.0182 11.68 29.8209 12.2827 29.8209 13.072V18H27.9969V9.184H29.8209V10.192C30.1195 9.82933 30.4982 9.54667 30.9569 9.344C31.4262 9.14133 31.9222 9.04 32.4449 9.04ZM46.4675 13.376C46.4675 13.7067 46.4462 14.0053 46.4035 14.272H39.6675C39.7208 14.976 39.9822 15.5413 40.4515 15.968C40.9208 16.3947 41.4968 16.608 42.1795 16.608C43.1608 16.608 43.8542 16.1973 44.2595 15.376H46.2275C45.9608 16.1867 45.4755 16.8533 44.7715 17.376C44.0782 17.888 43.2142 18.144 42.1795 18.144C41.3368 18.144 40.5795 17.9573 39.9075 17.584C39.2462 17.2 38.7235 16.6667 38.3395 15.984C37.9662 15.2907 37.7795 14.4907 37.7795 13.584C37.7795 12.6773 37.9608 11.8827 38.3235 11.2C38.6968 10.5067 39.2142 9.97333 39.8755 9.6C40.5475 9.22667 41.3155 9.04 42.1795 9.04C43.0115 9.04 43.7528 9.22133 44.4035 9.584C45.0542 9.94667 45.5608 10.4587 45.9235 11.12C46.2862 11.7707 46.4675 12.5227 46.4675 13.376ZM44.5635 12.8C44.5528 12.128 44.3128 11.5893 43.8435 11.184C43.3742 10.7787 42.7928 10.576 42.0995 10.576C41.4702 10.576 40.9315 10.7787 40.4835 11.184C40.0355 11.5787 39.7688 12.1173 39.6835 12.8H44.5635ZM54.2428 10.48C54.5521 10.0747 54.9734 9.73333 55.5068 9.456C56.0401 9.17867 56.6428 9.04 57.3148 9.04C58.0828 9.04 58.7814 9.232 59.4108 9.616C60.0508 9.98933 60.5521 10.5173 60.9148 11.2C61.2774 11.8827 61.4588 12.6667 61.4588 13.552C61.4588 14.4373 61.2774 15.232 60.9148 15.936C60.5521 16.6293 60.0508 17.1733 59.4108 17.568C58.7814 17.952 58.0828 18.144 57.3148 18.144C56.6428 18.144 56.0454 18.0107 55.5228 17.744C55.0001 17.4667 54.5734 17.1253 54.2428 16.72V22.192H52.4188V9.184H54.2428V10.48ZM59.6028 13.552C59.6028 12.944 59.4748 12.4213 59.2188 11.984C58.9734 11.536 58.6428 11.2 58.2268 10.976C57.8214 10.7413 57.3841 10.624 56.9148 10.624C56.4561 10.624 56.0188 10.7413 55.6028 10.976C55.1974 11.2107 54.8668 11.552 54.6108 12C54.3654 12.448 54.2428 12.976 54.2428 13.584C54.2428 14.192 54.3654 14.7253 54.6108 15.184C54.8668 15.632 55.1974 15.9733 55.6028 16.208C56.0188 16.4427 56.4561 16.56 56.9148 16.56C57.3841 16.56 57.8214 16.4427 58.2268 16.208C58.6428 15.9627 58.9734 15.6107 59.2188 15.152C59.4748 14.6933 59.6028 14.16 59.6028 13.552ZM65.0865 10.464C65.3532 10.016 65.7052 9.66933 66.1425 9.424C66.5905 9.168 67.1185 9.04 67.7265 9.04V10.928H67.2625C66.5478 10.928 66.0038 11.1093 65.6305 11.472C65.2678 11.8347 65.0865 12.464 65.0865 13.36V18H63.2625V9.184H65.0865V10.464ZM73.2271 18.144C72.3951 18.144 71.6431 17.9573 70.9711 17.584C70.2991 17.2 69.7711 16.6667 69.3871 15.984C69.0031 15.2907 68.8111 14.4907 68.8111 13.584C68.8111 12.688 69.0085 11.8933 69.4031 11.2C69.7978 10.5067 70.3365 9.97333 71.0191 9.6C71.7018 9.22667 72.4645 9.04 73.3071 9.04C74.1498 9.04 74.9125 9.22667 75.5951 9.6C76.2778 9.97333 76.8165 10.5067 77.2111 11.2C77.6058 11.8933 77.8031 12.688 77.8031 13.584C77.8031 14.48 77.6005 15.2747 77.1951 15.968C76.7898 16.6613 76.2351 17.2 75.5311 17.584C74.8378 17.9573 74.0698 18.144 73.2271 18.144ZM73.2271 16.56C73.6965 16.56 74.1338 16.448 74.5391 16.224C74.9551 16 75.2911 15.664 75.5471 15.216C75.8031 14.768 75.9311 14.224 75.9311 13.584C75.9311 12.944 75.8085 12.4053 75.5631 11.968C75.3178 11.52 74.9925 11.184 74.5871 10.96C74.1818 10.736 73.7445 10.624 73.2751 10.624C72.8058 10.624 72.3685 10.736 71.9631 10.96C71.5685 11.184 71.2538 11.52 71.0191 11.968C70.7845 12.4053 70.6671 12.944 70.6671 13.584C70.6671 14.5333 70.9071 15.2693 71.3871 15.792C71.8778 16.304 72.4911 16.56 73.2271 16.56ZM80.5343 8.016C80.2036 8.016 79.9263 7.904 79.7023 7.68C79.4783 7.456 79.3663 7.17867 79.3663 6.848C79.3663 6.51733 79.4783 6.24 79.7023 6.016C79.9263 5.792 80.2036 5.68 80.5343 5.68C80.8543 5.68 81.1263 5.792 81.3503 6.016C81.5743 6.24 81.6863 6.51733 81.6863 6.848C81.6863 7.17867 81.5743 7.456 81.3503 7.68C81.1263 7.904 80.8543 8.016 80.5343 8.016ZM81.4303 19.728C81.4303 20.592 81.2116 21.216 80.7743 21.6C80.3476 21.9947 79.7236 22.192 78.9023 22.192H77.9582V20.656H78.5823C78.9556 20.656 79.2169 20.5813 79.3663 20.432C79.5263 20.2933 79.6063 20.0587 79.6063 19.728V9.184H81.4303V19.728ZM91.905 13.376C91.905 13.7067 91.8837 14.0053 91.841 14.272H85.105C85.1583 14.976 85.4197 15.5413 85.889 15.968C86.3583 16.3947 86.9343 16.608 87.617 16.608C88.5983 16.608 89.2917 16.1973 89.697 15.376H91.665C91.3983 16.1867 90.913 16.8533 90.209 17.376C89.5157 17.888 88.6517 18.144 87.617 18.144C86.7743 18.144 86.017 17.9573 85.345 17.584C84.6837 17.2 84.161 16.6667 83.777 15.984C83.4037 15.2907 83.217 14.4907 83.217 13.584C83.217 12.6773 83.3983 11.8827 83.761 11.2C84.1343 10.5067 84.6517 9.97333 85.313 9.6C85.985 9.22667 86.753 9.04 87.617 9.04C88.449 9.04 89.1903 9.22133 89.841 9.584C90.4917 9.94667 90.9983 10.4587 91.361 11.12C91.7237 11.7707 91.905 12.5227 91.905 13.376ZM90.001 12.8C89.9903 12.128 89.7503 11.5893 89.281 11.184C88.8117 10.7787 88.2303 10.576 87.537 10.576C86.9077 10.576 86.369 10.7787 85.921 11.184C85.473 11.5787 85.2063 12.1173 85.121 12.8H90.001ZM93.092 13.584C93.092 12.6773 93.2733 11.8827 93.636 11.2C94.0093 10.5067 94.5213 9.97333 95.172 9.6C95.8227 9.22667 96.5693 9.04 97.412 9.04C98.4787 9.04 99.3587 9.296 100.052 9.808C100.756 10.3093 101.231 11.0293 101.476 11.968H99.508C99.348 11.5307 99.092 11.1893 98.74 10.944C98.388 10.6987 97.9453 10.576 97.412 10.576C96.6653 10.576 96.068 10.8427 95.62 11.376C95.1827 11.8987 94.964 12.6347 94.964 13.584C94.964 14.5333 95.1827 15.2747 95.62 15.808C96.068 16.3413 96.6653 16.608 97.412 16.608C98.468 16.608 99.1667 16.144 99.508 15.216H101.476C101.22 16.112 100.74 16.8267 100.036 17.36C99.332 17.8827 98.4573 18.144 97.412 18.144C96.5693 18.144 95.8227 17.9573 95.172 17.584C94.5213 17.2 94.0093 16.6667 93.636 15.984C93.2733 15.2907 93.092 14.4907 93.092 13.584ZM105.422 10.672V15.552C105.422 15.8827 105.496 16.1227 105.646 16.272C105.806 16.4107 106.072 16.48 106.446 16.48H107.566V18H106.126C105.304 18 104.675 17.808 104.238 17.424C103.8 17.04 103.582 16.416 103.582 15.552V10.672H102.542V9.184H103.582V6.992H105.422V9.184H107.566V10.672H105.422Z" fill="#FFD3AF"/>
<path d="M137.354 13.3536C137.549 13.1583 137.549 12.8417 137.354 12.6464L134.172 9.46447C133.976 9.2692 133.66 9.2692 133.464 9.46447C133.269 9.65973 133.269 9.97631 133.464 10.1716L136.293 13L133.464 15.8284C133.269 16.0237 133.269 16.3403 133.464 16.5355C133.66 16.7308 133.976 16.7308 134.172 16.5355L137.354 13.3536ZM117 13.5L137 13.5V12.5L117 12.5V13.5Z" fill="white"/>
</svg>
