<svg width="102" height="16" viewBox="0 0 102 16" fill="none" xmlns="http://www.w3.org/2000/svg">
<g opacity="0.8">
<g clip-path="url(#clip0_1_358)">
<path d="M16 8C16 3.58172 12.4183 0 8 0C3.58172 0 0 3.58172 0 8C0 11.993 2.92547 15.3027 6.75 15.9028V10.3125H4.71875V8H6.75V6.2375C6.75 4.2325 7.94438 3.125 9.77172 3.125C10.6467 3.125 11.5625 3.28125 11.5625 3.28125V5.25H10.5538C9.56 5.25 9.25 5.86672 9.25 6.5V8H11.4688L11.1141 10.3125H9.25V15.9028C13.0745 15.3027 16 11.993 16 8Z" fill="#232536"/>
</g>
<g clip-path="url(#clip1_1_358)">
<path d="M47.6999 14.5C53.7362 14.5 57.0387 9.4978 57.0387 5.16124C57.0387 5.02062 57.0356 4.87687 57.0293 4.73624C57.6718 4.27164 58.2262 3.69617 58.6665 3.03687C58.0682 3.30307 57.4329 3.47692 56.7824 3.55249C57.4674 3.14194 57.9802 2.49698 58.2259 1.73718C57.5815 2.11904 56.8769 2.38841 56.1421 2.53374C55.6471 2.00771 54.9925 1.65941 54.2796 1.5427C53.5668 1.42599 52.8353 1.54737 52.1983 1.88806C51.5614 2.22876 51.0544 2.7698 50.7557 3.42754C50.4571 4.08528 50.3835 4.82308 50.5462 5.52687C49.2415 5.46139 47.9651 5.12247 46.7998 4.53207C45.6345 3.94166 44.6063 3.11296 43.7818 2.09968C43.3628 2.82216 43.2345 3.6771 43.4232 4.49073C43.6118 5.30436 44.1032 6.01563 44.7974 6.47999C44.2763 6.46344 43.7665 6.32312 43.3103 6.07062V6.11124C43.3098 6.86943 43.5719 7.60439 44.052 8.19118C44.5322 8.77797 45.2007 9.18037 45.944 9.32999C45.4612 9.46209 44.9545 9.48133 44.4631 9.38624C44.6728 10.0383 45.0809 10.6086 45.6304 11.0176C46.1798 11.4265 46.8433 11.6537 47.5281 11.6675C46.3655 12.5807 44.9293 13.0761 43.4509 13.0737C43.1887 13.0733 42.9268 13.0573 42.6665 13.0256C44.1684 13.9892 45.9155 14.5009 47.6999 14.5Z" fill="#232536"/>
</g>
<g clip-path="url(#clip2_1_358)">
<path d="M93.3335 1.44062C95.471 1.44062 95.7241 1.45 96.5647 1.4875C97.346 1.52187 97.7679 1.65313 98.0491 1.7625C98.421 1.90625 98.6897 2.08125 98.9679 2.35938C99.2491 2.64062 99.421 2.90625 99.5647 3.27813C99.6741 3.55938 99.8054 3.98438 99.8397 4.7625C99.8772 5.60625 99.8866 5.85938 99.8866 7.99375C99.8866 10.1313 99.8772 10.3844 99.8397 11.225C99.8054 12.0063 99.6741 12.4281 99.5647 12.7094C99.421 13.0813 99.246 13.35 98.9679 13.6281C98.6866 13.9094 98.421 14.0813 98.0491 14.225C97.7679 14.3344 97.3429 14.4656 96.5647 14.5C95.721 14.5375 95.4679 14.5469 93.3335 14.5469C91.196 14.5469 90.9429 14.5375 90.1022 14.5C89.321 14.4656 88.8991 14.3344 88.6179 14.225C88.246 14.0813 87.9772 13.9063 87.6991 13.6281C87.4179 13.3469 87.246 13.0813 87.1022 12.7094C86.9929 12.4281 86.8616 12.0031 86.8272 11.225C86.7897 10.3813 86.7804 10.1281 86.7804 7.99375C86.7804 5.85625 86.7897 5.60313 86.8272 4.7625C86.8616 3.98125 86.9929 3.55938 87.1022 3.27813C87.246 2.90625 87.421 2.6375 87.6991 2.35938C87.9804 2.07812 88.246 1.90625 88.6179 1.7625C88.8991 1.65313 89.3241 1.52187 90.1022 1.4875C90.9429 1.45 91.196 1.44062 93.3335 1.44062ZM93.3335 0C91.1616 0 90.8897 0.009375 90.0366 0.046875C89.1866 0.084375 88.6022 0.221875 88.096 0.41875C87.5679 0.625 87.121 0.896875 86.6772 1.34375C86.2304 1.7875 85.9585 2.23438 85.7522 2.75938C85.5554 3.26875 85.4179 3.85 85.3804 4.7C85.3429 5.55625 85.3335 5.82812 85.3335 8C85.3335 10.1719 85.3429 10.4438 85.3804 11.2969C85.4179 12.1469 85.5554 12.7313 85.7522 13.2375C85.9585 13.7656 86.2304 14.2125 86.6772 14.6562C87.121 15.1 87.5679 15.375 88.0929 15.5781C88.6022 15.775 89.1835 15.9125 90.0335 15.95C90.8866 15.9875 91.1585 15.9969 93.3304 15.9969C95.5022 15.9969 95.7741 15.9875 96.6272 15.95C97.4772 15.9125 98.0616 15.775 98.5679 15.5781C99.0929 15.375 99.5397 15.1 99.9835 14.6562C100.427 14.2125 100.702 13.7656 100.905 13.2406C101.102 12.7313 101.24 12.15 101.277 11.3C101.315 10.4469 101.324 10.175 101.324 8.00313C101.324 5.83125 101.315 5.55938 101.277 4.70625C101.24 3.85625 101.102 3.27188 100.905 2.76562C100.708 2.23438 100.437 1.7875 99.9897 1.34375C99.546 0.9 99.0991 0.625 98.5741 0.421875C98.0647 0.225 97.4835 0.0875 96.6335 0.05C95.7772 0.009375 95.5054 0 93.3335 0Z" fill="#232536"/>
<path d="M93.3335 3.89062C91.0647 3.89062 89.2241 5.73125 89.2241 8C89.2241 10.2688 91.0647 12.1094 93.3335 12.1094C95.6022 12.1094 97.4429 10.2688 97.4429 8C97.4429 5.73125 95.6022 3.89062 93.3335 3.89062ZM93.3335 10.6656C91.8616 10.6656 90.6679 9.47188 90.6679 8C90.6679 6.52813 91.8616 5.33437 93.3335 5.33437C94.8054 5.33437 95.9991 6.52813 95.9991 8C95.9991 9.47188 94.8054 10.6656 93.3335 10.6656Z" fill="#232536"/>
<path d="M98.5647 3.72817C98.5647 4.25943 98.1335 4.68755 97.6054 4.68755C97.0741 4.68755 96.646 4.2563 96.646 3.72817C96.646 3.19692 97.0772 2.7688 97.6054 2.7688C98.1335 2.7688 98.5647 3.20005 98.5647 3.72817Z" fill="#232536"/>
</g>
</g>
<defs>
<clipPath id="clip0_1_358">
<rect width="16" height="16" fill="white"/>
</clipPath>
<clipPath id="clip1_1_358">
<rect width="16" height="16" fill="white" transform="translate(42.6665)"/>
</clipPath>
<clipPath id="clip2_1_358">
<rect width="16" height="16" fill="white" transform="translate(85.3335)"/>
</clipPath>
</defs>
</svg>
